<svg xmlns="http://www.w3.org/2000/svg" width="206" height="74.32" viewBox="0 0 206 74.32">
  <defs>
    <style>
      .a{fill:rgba(255,0,13,0.05);}.b{fill:none;stroke:#000;}.c{fill:#ad6643;}.d{fill:#eb423f;}.e{fill:#fbdac1;}.f{fill:#d48031;}.g{fill:#824c33;}.h{fill:#f79539;}.i{fill:#f7a565;}.j{fill:#95573a;}.k{fill:#fbb06a;}.l{fill:rgba(230,28,41,0.4);}
    </style>
  </defs>
  <path class="a"
        d="M1241.543,424.722c8.71-22.786,31.843-3.744,44.24-26.349s40.627-13.833,55.17-3.866c20.218,18.723,32.987,7.831,41.2,30.215s-17.68,31.725-17.68,31.725H1252.126S1232.833,447.508,1241.543,424.722Z"
        transform="translate(-1209.758 -382.656)"/>
  <line class="b" x2="206" transform="translate(0 73.82)"/>
  <g transform="translate(67.18)">
    <path class="c" d="M248,24h2.528V36.641H248Z" transform="translate(-212.604 -24)"/>
    <path class="d" d="M248,24h7.585v5.057H248Z" transform="translate(-212.604 -24)"/>
    <path class="e" d="M32,200h70.792v45.509H32Z" transform="translate(-30.736 -172.189)"/>
    <path class="f" d="M102.792,100.641H32L67.4,88Z" transform="translate(-30.736 -77.887)"/>
    <path class="g" d="M240,344h5.057v12.641H240Z" transform="translate(-205.868 -293.434)"/>
    <g transform="translate(18.962 37.924)">
      <path class="c" d="M146.528,344a2.528,2.528,0,0,1,2.528,2.528v5.057H144v-5.057A2.528,2.528,0,0,1,146.528,344Z" transform="translate(-144 -331.359)"/>
      <path class="c" d="M146.528,264a2.528,2.528,0,0,1,2.528,2.528v5.057H144v-5.057A2.528,2.528,0,0,1,146.528,264Z" transform="translate(-144 -264)"/>
      <path class="c" d="M242.528,264a2.528,2.528,0,0,1,2.528,2.528v5.057H240v-5.057A2.528,2.528,0,0,1,242.528,264Z" transform="translate(-224.83 -264)"/>
      <path class="c" d="M338.528,344a2.528,2.528,0,0,1,2.528,2.528v5.057H336v-5.057A2.528,2.528,0,0,1,338.528,344Z" transform="translate(-305.66 -331.359)"/>
      <path class="c" d="M338.528,264a2.528,2.528,0,0,1,2.528,2.528v5.057H336v-5.057A2.528,2.528,0,0,1,338.528,264Z" transform="translate(-305.66 -264)"/>
    </g>
    <path class="h" d="M24,168H97.32v5.057H24Z" transform="translate(-24 -145.245)"/>
    <path class="i" d="M32,392H44.641v5.057H32Z" transform="translate(-30.736 -333.849)"/>
    <path class="i" d="M400,392h12.641v5.057H400Z" transform="translate(-340.585 -333.849)"/>
    <path class="f" d="M24,424H37.906v10.113H24Z" transform="translate(-24 -360.793)"/>
    <path class="j" d="M96,456h50.566v5.057H96Z" transform="translate(-84.623 -387.736)"/>
    <path class="c" d="M112,424h45.509v5.057H112Z" transform="translate(-98.094 -360.793)"/>
    <path class="k"
          d="M32,200v35.4H45.906V208.449a7.584,7.584,0,0,1,12.641,0V235.4h2.528V208.449a7.584,7.584,0,0,1,12.641,0V235.4h2.528V208.449a7.584,7.584,0,0,1,12.641,0V235.4h13.906V200Z"
          transform="translate(-30.736 -172.189)"/>
  </g>
  <circle class="l" cx="3" cy="3" r="3" transform="translate(32.5 46.32)"/>
  <circle class="l" cx="1" cy="1" r="1" transform="translate(61.5 60.32)"/>
  <circle class="l" cx="6" cy="6" r="6" transform="translate(47.5 12.32)"/>
  <circle class="l" cx="3" cy="3" r="3" transform="translate(156.5 37.32)"/>
  <circle class="l" cx="1" cy="1" r="1" transform="translate(145.5 59.32)"/>
  <circle class="l" cx="6" cy="6" r="6" transform="translate(144.5 0.32)"/>
</svg>