<svg xmlns="http://www.w3.org/2000/svg" width="206" height="79" viewBox="0 0 206 79">
  <defs>
    <style>.a{fill:rgba(255,0,13,0.05);}.b{fill:rgba(230,28,41,0.4);}.c{fill:#72d8ff;}.d{fill:#5a54e0;}.e{fill:#fcc69d;}.f{fill:#a0e557;}.g{fill:none;stroke:#000;}</style>
  </defs>
  <path class="a"
        d="M1239.644,431.878c2.063-15.485,16.068-11.131,30.666-23.171s14.89-22.875,33.962-29.051,29.759,11.8,53.4,15.336c26.808-1.746,37.9,25.984,33.42,38.928-4.974,13.882-26.623,22.526-26.623,22.526H1252.126S1237.582,447.363,1239.644,431.878Z"
        transform="translate(-1209.758 -377.977)"/>
  <circle class="b" cx="6" cy="6" r="6" transform="translate(173.5 8)"/>
  <circle class="b" cx="2" cy="2" r="2" transform="translate(150.5 52)"/>
  <circle class="b" cx="3.5" cy="3.5" r="3.5" transform="translate(121.5)"/>
  <circle class="b" cx="2.5" cy="2.5" r="2.5" transform="translate(64.5 27)"/>
  <circle class="b" cx="2.5" cy="2.5" r="2.5" transform="translate(30.5 62)"/>
  <g transform="translate(63.684 4.727)">
    <path class="c"
          d="M58.655,64a3.264,3.264,0,0,0-3.264,3.264v.816a15.5,15.5,0,0,1-15.5,15.5H32.032a15.5,15.5,0,0,1-15.5-15.5v-.816a3.264,3.264,0,1,0-6.528,0v.816A22.072,22.072,0,0,0,25.982,89.268v18.068H45.567V89.37A22.072,22.072,0,0,0,61.919,68.08v-.816A3.264,3.264,0,0,0,58.655,64Z"
          transform="translate(-10 -64)"/>
    <rect class="d" width="15.667" height="30.753" transform="translate(17.912 43.335)"/>
    <g transform="translate(19.497 7.975)">
      <path class="e" d="M135.7,100.61h0a6.235,6.235,0,0,0-6.235,6.235v1.134a6.235,6.235,0,0,0,6.235,6.235h0a6.235,6.235,0,0,0,6.235-6.235v-1.134A6.235,6.235,0,0,0,135.7,100.61Z"
            transform="translate(-129.464 -100.61)"/>
      <path class="e"
            d="M309.572,273.079h0a6.235,6.235,0,0,0-6.235,6.235v1.134a6.235,6.235,0,0,0,6.235,6.235h0a6.235,6.235,0,0,0,6.235-6.235v-1.134A6.235,6.235,0,0,0,309.572,273.079Z"
            transform="translate(-274.96 -244.932)"/>
    </g>
    <path class="f"
          d="M232.528,236.469a3.264,3.264,0,0,0-3.264,3.264v.816a15.5,15.5,0,0,1-15.5,15.5h-7.854a15.5,15.5,0,0,1-15.5-15.5v-.816a3.264,3.264,0,1,0-6.528,0v.816a22.072,22.072,0,0,0,15.982,21.188V279.8H219.44V261.839a22.072,22.072,0,0,0,16.353-21.29v-.816A3.264,3.264,0,0,0,232.528,236.469Z"
          transform="translate(-155.496 -206.322)"/>
  </g>
  <line class="g" x2="206" transform="translate(0 78.5)"/>
</svg>