<svg xmlns="http://www.w3.org/2000/svg" width="206" height="77.284" viewBox="0 0 206 77.284">
  <defs>
    <style>
      .a{fill:rgba(255,0,13,0.05);}.b{fill:rgba(230,28,41,0.4);}.c{fill:#ffebb7;}.d{fill:#5c546a;}.e{fill:#00c37a;}.f{fill:#009bca;}.g{fill:#e6be94;}.h{fill:#ff4f19;}.i{fill:none;stroke:#000;}
    </style>
  </defs>
  <path class="a"
        d="M1231.885,431.983c2.063-15.485-4.074-36.908,10.523-48.948s42.3,12.8,61.376,6.625,30.247,1.8,53.889,5.333c26.808-1.746,37.9,25.984,33.42,38.928-4.974,13.882-26.623,22.526-26.623,22.526H1252.126S1229.822,447.468,1231.885,431.983Z"
        transform="translate(-1209.758 -379.693)"/>
  <circle class="b" cx="1" cy="1" r="1" transform="translate(160.5 55.284)"/>
  <circle class="b" cx="2" cy="2" r="2" transform="translate(139.5 32.284)"/>
  <circle class="b" cx="2.5" cy="2.5" r="2.5" transform="translate(52.5 21.284)"/>
  <circle class="b" cx="6.5" cy="6.5" r="6.5" transform="translate(10.5 3.284)"/>
  <circle class="b" cx="2.5" cy="2.5" r="2.5" transform="translate(30.5 60.284)"/>
  <g transform="translate(63.5 15.807)">
    <g transform="translate(4.036 38.603)">
      <path class="c" d="M88.67,336.317H41.051a9.27,9.27,0,0,1-9.27-9.27V325.27a9.27,9.27,0,0,1,9.27-9.27H88.67Z" transform="translate(-31.781 -316)"/>
    </g>
    <g transform="translate(6.067 40.635)">
      <rect class="d" width="5.079" height="16.254"/>
    </g>
    <g transform="translate(2.004 21.333)">
      <path class="c" d="M69.876,194.222h-54.1V180h54.1a2.794,2.794,0,0,1,2.794,2.794v8.635A2.794,2.794,0,0,1,69.876,194.222Z" transform="translate(-15.781 -180)"/>
    </g>
    <g transform="translate(9.115 3.048)">
      <rect class="c" width="51.81" height="15.238" transform="translate(0 0)"/>
    </g>
    <g transform="translate(2.032 36.571)">
      <path class="e" d="M74.921,324.381H28.19a12.19,12.19,0,1,1,0-24.381h46.73a2.032,2.032,0,1,1,0,4.063H28.19a8.127,8.127,0,0,0,0,16.254h46.73a2.032,2.032,0,1,1,0,4.063Z"
            transform="translate(-16 -300)"/>
    </g>
    <g transform="translate(0 20.317)">
      <path class="f"
            d="M54.857,188.254H1.016a1.016,1.016,0,1,1,0-2.032H54.857a3.051,3.051,0,0,0,3.048-3.048v-6.1a3.051,3.051,0,0,0-3.048-3.048H1.016a1.016,1.016,0,1,1,0-2.032H54.857a5.085,5.085,0,0,1,5.079,5.079v6.1A5.085,5.085,0,0,1,54.857,188.254Z"
            transform="translate(0 -172)"/>
    </g>
    <g transform="translate(13.179 6.095)">
      <path class="g" d="M151.527,62.032H104.8a1.016,1.016,0,0,1-1.016-1.016h0A1.016,1.016,0,0,1,104.8,60h46.73Z" transform="translate(-103.781 -60)"/>
    </g>
    <g transform="translate(13.179 10.159)">
      <path class="g" d="M151.527,94.032H104.8a1.016,1.016,0,0,1-1.016-1.016h0A1.016,1.016,0,0,1,104.8,92h46.73Z" transform="translate(-103.781 -92)"/>
    </g>
    <g transform="translate(13.179 14.222)">
      <path class="g" d="M151.527,126.032H104.8a1.016,1.016,0,0,1-1.016-1.016h0A1.016,1.016,0,0,1,104.8,124h46.73Z" transform="translate(-103.781 -124)"/>
    </g>
    <g transform="translate(2.004 24.381)">
      <path class="g" d="M15.781,204H68.606a1.016,1.016,0,0,1,1.016,1.016h0a1.016,1.016,0,0,1-1.016,1.016H15.781S15.781,204,15.781,204Z" transform="translate(-15.781 -204)"/>
    </g>
    <g transform="translate(2.004 28.444)">
      <path class="g" d="M15.781,236H68.606a1.016,1.016,0,0,1,1.016,1.016h0a1.016,1.016,0,0,1-1.016,1.016H15.781S15.781,236,15.781,236Z" transform="translate(-15.781 -236)"/>
    </g>
    <g transform="translate(2.004 32.508)">
      <path class="g" d="M15.781,268H68.606a1.016,1.016,0,0,1,1.016,1.016h0a1.016,1.016,0,0,1-1.016,1.016H15.781S15.781,268,15.781,268Z" transform="translate(-15.781 -268)"/>
    </g>
    <g transform="translate(7.111)">
      <path class="h"
            d="M110.857,32.317H62.1a6.1,6.1,0,0,1-6.1-6.1V18.1A6.1,6.1,0,0,1,62.1,12h48.762a2.032,2.032,0,1,1,0,4.063H62.1A2.034,2.034,0,0,0,60.063,18.1v8.127A2.034,2.034,0,0,0,62.1,28.254h48.762a2.032,2.032,0,1,1,0,4.063Z"
            transform="translate(-56 -12)"/>
    </g>
    <g transform="translate(13.179 54.857)">
      <path class="g" d="M104.8,444a1.016,1.016,0,1,0,0,2.032h46.73V444Z" transform="translate(-103.781 -444)"/>
    </g>
    <g transform="translate(13.179 50.794)">
      <path class="g" d="M104.8,412a1.016,1.016,0,0,0,0,2.032h46.73V412Z" transform="translate(-103.781 -412)"/>
    </g>
    <g transform="translate(13.179 46.73)">
      <path class="g" d="M104.8,380a1.016,1.016,0,1,0,0,2.032h46.73V380Z" transform="translate(-103.781 -380)"/>
    </g>
    <g transform="translate(13.179 42.667)">
      <path class="g" d="M104.8,348a1.016,1.016,0,1,0,0,2.032h46.73V348Z" transform="translate(-103.781 -348)"/>
    </g>
  </g>
  <path class="i" d="M0,0H206" transform="translate(0 76.784)"/>
</svg>